<?xml version="1.0" encoding="UTF-8"?>
<svg xmlns="http://www.w3.org/2000/svg" xmlns:xlink="http://www.w3.org/1999/xlink" width="512px" height="512px" viewBox="0 0 512 512" version="1.1">
<defs>
<linearGradient id="linear0" gradientUnits="userSpaceOnUse" x1="508" y1="-0.999974" x2="-71.0223" y2="100.054" gradientTransform="matrix(1.007874,0,0,1.007874,0,0)">
<stop offset="0" style="stop-color:rgb(100%,40%,70.196078%);stop-opacity:1;"/>
<stop offset="1" style="stop-color:rgb(100%,50.196078%,30.196078%);stop-opacity:1;"/>
</linearGradient>
<linearGradient id="linear1" gradientUnits="userSpaceOnUse" x1="254" y1="507" x2="254" y2="-0.999989" gradientTransform="matrix(1.007874,0,0,1.007874,0,0)">
<stop offset="0" style="stop-color:rgb(45.490196%,40%,100%);stop-opacity:1;"/>
<stop offset="0.995636" style="stop-color:rgb(45.490196%,40%,100%);stop-opacity:0;"/>
</linearGradient>
</defs>
<g id="surface1">
<path style=" stroke:none;fill-rule:nonzero;fill:url(#linear0);" d="M 64 -1.007812 L 448 -1.007812 C 483.347656 -1.007812 512 27.644531 512 62.992188 L 512 446.992188 C 512 482.339844 483.347656 510.992188 448 510.992188 L 64 510.992188 C 28.652344 510.992188 0 482.339844 0 446.992188 L 0 62.992188 C 0 27.644531 28.652344 -1.007812 64 -1.007812 Z M 64 -1.007812 "/>
<path style=" stroke:none;fill-rule:nonzero;fill:url(#linear1);" d="M 64 -1.007812 L 448 -1.007812 C 483.347656 -1.007812 512 27.644531 512 62.992188 L 512 446.992188 C 512 482.339844 483.347656 510.992188 448 510.992188 L 64 510.992188 C 28.652344 510.992188 0 482.339844 0 446.992188 L 0 62.992188 C 0 27.644531 28.652344 -1.007812 64 -1.007812 Z M 64 -1.007812 "/>
<path style=" stroke:none;fill-rule:nonzero;fill:rgb(96.862745%,95.294118%,93.72549%);fill-opacity:1;" d="M 463.066406 249.210938 C 462.675781 251.234375 461.902344 253.242188 461.066406 255.027344 C 459.765625 257.789062 458.054688 260.390625 456 262.648438 C 451.335938 267.761719 444.746094 270.363281 437.996094 271.730469 C 431.25 273.097656 410.78125 272.214844 402.230469 270.152344 C 380.453125 264.890625 357.980469 265.011719 344.660156 270.160156 C 336.210938 273.433594 333.253906 275.300781 328.792969 279.148438 C 311.140625 294.328125 303.242188 331.042969 296.234375 352.652344 C 291.464844 367.429688 286.789062 382.8125 276.082031 394.460938 C 259.59375 412.371094 232.144531 417.261719 207.253906 417.261719 L 97.917969 417.261719 C 96.554688 417.261719 95.519531 416.023438 95.792969 414.675781 L 98.355469 401.488281 C 100.4375 390.742188 109.863281 382.988281 120.8125 382.988281 L 194.222656 382.988281 C 215.414062 382.988281 238.09375 380.023438 249.84375 363.804688 C 256.433594 354.6875 258.328125 343.394531 261.023438 332.648438 C 270.457031 295.03125 273.589844 260.253906 311.253906 245.417969 C 300.15625 238.484375 292.089844 227.273438 289.28125 214.949219 C 284.121094 192.195312 296.324219 169.285156 297.460938 146.039062 C 297.960938 136.136719 295.628906 124.976562 286.9375 119.484375 C 280.851562 115.625 273.042969 115.511719 265.726562 115.511719 C 238.269531 115.542969 220.90625 115.558594 188.980469 115.578125 L 181.5625 115.578125 C 167.203125 115.589844 156.421875 102.492188 159.164062 88.402344 L 159.933594 84.402344 C 160.128906 83.371094 161.003906 82.648438 162.042969 82.648438 C 179.035156 82.648438 243.503906 82.75 275.851562 82.648438 C 294.523438 82.601562 315.5 83.472656 328.144531 96.476562 C 332.335938 100.800781 335.011719 105.820312 336.589844 111.257812 C 336.664062 111.472656 336.722656 111.703125 336.785156 111.925781 C 340.410156 125.246094 337.558594 140.953125 333.90625 154.832031 C 329.203125 172.882812 324.164062 193.859375 334.238281 211.109375 C 338.246094 217.960938 344.519531 223.035156 351.972656 225.722656 C 356.136719 227.226562 357.921875 227.980469 362.347656 227.945312 C 364.558594 227.925781 366.761719 227.703125 368.945312 227.3125 C 373.296875 226.550781 378.027344 225.488281 381.949219 224.71875 C 383.828125 224.347656 385.714844 224.011719 387.621094 223.742188 C 392.789062 223.015625 398.316406 222.878906 403.578125 223.929688 C 407.4375 224.699219 411.199219 226.121094 414.425781 228.390625 C 417.855469 230.804688 419.882812 233.808594 421.683594 237.527344 C 422.699219 239.609375 423.953125 241.71875 426 242.804688 C 429.660156 244.757812 435.339844 243.445312 439.28125 243.132812 C 443.378906 242.804688 447.449219 242.164062 451.539062 241.691406 C 453.527344 241.457031 455.519531 241.253906 457.515625 241.160156 C 459.085938 241.085938 460.796875 241.292969 461.976562 242.453125 C 462.824219 243.289062 463.222656 244.496094 463.316406 245.6875 C 463.398438 246.839844 463.296875 248.019531 463.074219 249.199219 Z M 463.066406 249.210938 "/>
<path style=" stroke:none;fill-rule:nonzero;fill:rgb(96.862745%,95.294118%,93.72549%);fill-opacity:1;" d="M 184.199219 184.722656 L 173.984375 237.015625 C 173.714844 238.417969 174.785156 239.71875 176.214844 239.71875 L 230.960938 239.71875 C 232.394531 239.71875 233.464844 241.019531 233.195312 242.425781 L 230.757812 255.046875 C 228.695312 265.734375 219.335938 273.46875 208.449219 273.46875 L 168.828125 273.46875 C 167.738281 273.46875 166.800781 274.242188 166.597656 275.308594 L 155.878906 330.425781 C 153.804688 341.109375 144.445312 348.8125 133.570312 348.8125 L 111.394531 348.8125 C 109.964844 348.8125 108.894531 347.511719 109.164062 346.109375 L 147.050781 150.972656 C 147.253906 149.902344 148.191406 149.132812 149.28125 149.132812 L 256.097656 149.132812 C 257.527344 149.132812 258.597656 150.433594 258.328125 151.835938 L 255.890625 164.460938 C 253.828125 175.148438 244.46875 182.882812 233.582031 182.882812 L 186.441406 182.882812 C 185.351562 182.882812 184.414062 183.652344 184.210938 184.722656 Z M 184.199219 184.722656 "/>
</g>
</svg>
