<svg xmlns="http://www.w3.org/2000/svg" viewBox="0 0 24 24" fill="#06b6d4"><path d="M15.948 1.714c-.439.095-.88.18-1.315.3a19.7 19.7 0 0 0-4.876 2.177l-.353.213c-.18-.09-.363-.18-.546-.264A11.7 11.7 0 0 0 4.68 3.01a10 10 0 0 0-1.692.244L2.5 3.363v8.26c0 3.484 1.02 5.86 2.584 7.627a12.3 12.3 0 0 0 3.593 2.88c.55.298 1.04.51 1.425.65.192.072.36.124.508.163.072.02.145.04.218.05.053.012.15.028.264.028s.212-.016.264-.028c.073-.01.146-.03.218-.05.148-.04.316-.091.508-.163.385-.14.874-.352 1.425-.65a12.3 12.3 0 0 0 3.593-2.88c1.563-1.768 2.584-4.143 2.584-7.628V3.363l-.487-.109a10 10 0 0 0-1.693-.244 11.64 11.64 0 0 0-1.556.004zM5.3 4.478l.238-.037q.214-.03.437-.049a10.2 10.2 0 0 1 3.07.269c.07.027.142.052.213.08A20 20 0 0 0 6.9 7.16a20 20 0 0 0-1.6 2.655V4.478zM11.1 21.14a8 8 0 0 1-.544-.234c-.485-.225-1.073-.545-1.665-.955A10.8 10.8 0 0 1 5.8 16.698c-1.117-1.37-1.824-3.07-1.9-5.472a18 18 0 0 1 2.14-3.446A18 18 0 0 1 9.44 4.67c.175-.139.351-.268.528-.394.25.123.5.255.735.403a8.5 8.5 0 0 1 1.7 1.447c.084.093.165.195.244.296a17.88 17.88 0 0 0-4.037 4.076A17.7 17.7 0 0 0 6.2 16.244c-.024.387-.024.755-.006 1.107.048.728.174 1.386.395 1.97.158.418.36.804.612 1.155.135.19.284.37.45.535.097.098.2.187.306.271a3 3 0 0 0 .337.23c.24.141.5.237.753.306.137.037.267.058.387.073.06.009.114.008.167.013V21.92l-.003-.002a5 5 0 0 1-.356-.13 9.7 9.7 0 0 1-.14-.053zm.9.8v-.002zm6.3-5.242c-1.117 1.37-2.204 2.35-3.091 2.953a8 8 0 0 1-.544.234 10 10 0 0 1-.496.183v-5.264l.002-.002 4.006-.908q.098-.023.198-.048a6.3 6.3 0 0 1-.51 1.282c-.14.272-.298.539-.475.8a6.6 6.6 0 0 1-.573.727l-.013.014a4.9 4.9 0 0 1-.609.532c-.168.12-.33.214-.478.277a1.7 1.7 0 0 1-.432.128c-.045.008-.066.003-.1.003v1.402c.204-.012.414-.044.633-.104.262-.072.54-.183.82-.333a5.5 5.5 0 0 0 .503-.325c.192-.145.384-.313.573-.5.376-.373.735-.824 1.057-1.34.37-.588.67-1.25.885-1.989.111-.382.2-.784.264-1.204l-1.05.238a19 19 0 0 1-2.956.527l-.001.002V12.24l1.224-.278c.826-.19 1.672-.408 2.422-.68a8 8 0 0 0 .516-.213c.103-.047.21-.1.3-.155.068-.04.21-.13.282-.253a.44.44 0 0 0 .06-.213c.003-.055-.01-.1-.022-.137a.7.7 0 0 0-.076-.155 2 2 0 0 0-.152-.211 5 5 0 0 0-.366-.393 7.7 7.7 0 0 0-1.34-1.03 9.5 9.5 0 0 0-1.6-.83c-.202-.082-.397-.157-.592-.223a16.5 16.5 0 0 1 3.437-2.917c.153-.103.311-.204.468-.3q.222.02.437.049l.238.037v7.145c-.076 2.402-.783 4.103-1.9 5.472z"/></svg>
